<mxfile host="app.diagrams.net" modified="2023-05-10T06:54:43.230Z" agent="Mozilla/5.0 (Windows NT 10.0; Win64; x64) AppleWebKit/537.36 (KHTML, like Gecko) Chrome/112.0.0.0 Safari/537.36 Edg/112.0.1722.58" etag="usNrb6yTLblDa_fMpcac" version="21.2.9" type="github">
  <diagram name="第 1 页" id="SoUFM3bobEv_M_4Bs4ss">
    <mxGraphModel dx="528" dy="623" grid="0" gridSize="10" guides="1" tooltips="1" connect="1" arrows="1" fold="1" page="0" pageScale="1" pageWidth="827" pageHeight="1169" math="0" shadow="0">
      <root>
        <mxCell id="0" />
        <mxCell id="1" parent="0" />
        <mxCell id="bxwC2wkl4FP4BgaSAkHD-1" value="&lt;font style=&quot;font-size: 18px;&quot;&gt;alpha=Attention_unit(encoder_feats,state)&lt;/font&gt;" style="rounded=0;whiteSpace=wrap;html=1;" vertex="1" parent="1">
          <mxGeometry x="159" y="23" width="365" height="50" as="geometry" />
        </mxCell>
      </root>
    </mxGraphModel>
  </diagram>
</mxfile>
